<svg width="24" height="17" viewBox="0 0 24 17" fill="none" xmlns="http://www.w3.org/2000/svg">
<path d="M5.67315 1H9.26342L7.12764 5.82687L6.71781 6.7531L7.64919 7.15108C9.33237 7.87031 10.4887 9.50272 10.4887 11.382C10.4887 13.9116 8.38571 16 5.74437 16C3.10304 16 1 13.9116 1 11.382C1 10.866 1.08655 10.3716 1.24569 9.91052C1.27022 9.83946 1.29648 9.76915 1.32443 9.69964L5.67315 1ZM18.1843 1H21.7746L19.6388 5.82687L19.2289 6.7531L20.1603 7.15108C21.8435 7.87031 22.9999 9.50272 22.9999 11.382C22.9999 13.9116 20.8968 16 18.2555 16C15.6142 16 13.5111 13.9116 13.5111 11.382C13.5111 10.866 13.5977 10.3716 13.7568 9.91052C13.7813 9.83945 13.8076 9.76914 13.8356 9.69964L18.1843 1Z" stroke="#0FA8AE" stroke-width="2"/>
</svg>
